<svg width="13" height="16" viewBox="0 0 13 16" fill="none" xmlns="http://www.w3.org/2000/svg">
<path d="M6.50004 15.9166C6.31532 15.9166 6.15699 15.8638 6.02504 15.7583C5.8931 15.6527 5.79414 15.5142 5.72817 15.3426C5.47747 14.6037 5.1608 13.911 4.77817 13.2645C4.40872 12.618 3.88754 11.8593 3.21462 10.9885C2.54171 10.1176 1.99414 9.28638 1.57192 8.49471C1.16289 7.70304 0.958374 6.74645 0.958374 5.62492C0.958374 4.08117 1.49275 2.77492 2.5615 1.70617C3.64344 0.624224 4.95629 0.083252 6.50004 0.083252C8.04379 0.083252 9.35004 0.624224 10.4188 1.70617C11.5007 2.77492 12.0417 4.08117 12.0417 5.62492C12.0417 6.82561 11.8108 7.82839 11.349 8.63325C10.9004 9.42492 10.3792 10.21 9.78546 10.9885C9.07296 11.9385 8.53199 12.7301 8.16254 13.3635C7.80629 13.9836 7.50942 14.6433 7.27192 15.3426C7.20594 15.5273 7.10039 15.6725 6.95525 15.778C6.82331 15.8704 6.67157 15.9166 6.50004 15.9166ZM6.50004 7.60408C7.05421 7.60408 7.52261 7.41277 7.90525 7.03013C8.28789 6.64749 8.47921 6.17908 8.47921 5.62492C8.47921 5.07075 8.28789 4.60235 7.90525 4.21971C7.52261 3.83707 7.05421 3.64575 6.50004 3.64575C5.94587 3.64575 5.47747 3.83707 5.09483 4.21971C4.71219 4.60235 4.52087 5.07075 4.52087 5.62492C4.52087 6.17908 4.71219 6.64749 5.09483 7.03013C5.47747 7.41277 5.94587 7.60408 6.50004 7.60408Z" fill="#666464"/>
</svg>
